<svg width="100%" height="100%" viewBox="0 0 98 98" version="1.1" xmlns="http://www.w3.org/2000/svg" xmlns:xlink="http://www.w3.org/1999/xlink" xml:space="preserve" style="fill-rule:evenodd;clip-rule:evenodd;">
    <g id="lightbulb">
        <path d="M97.25,49C97.25,22.37 75.63,0.75 49,0.75C22.37,0.75 0.75,22.37 0.75,49C0.75,75.63 22.37,97.25 49,97.25C75.63,97.25 97.25,75.63 97.25,49Z" style="fill:white;stroke:rgb(191,191,191);stroke-width:1.5px;"></path>
        <g>
            <g transform="matrix(-1,1.22465e-16,-1.22465e-16,-1,81,81)">
                <path d="M26.78,4.337C26.227,4.118 25.632,4 25,4C22.239,4 20,6.239 20,9L20,37" style="fill:none;fill-rule:nonzero;stroke:rgb(62,182,253);stroke-width:2.2px;stroke-miterlimit:10;"></path>
            </g>
            <g transform="matrix(-1,1.22465e-16,-1.22465e-16,-1,81,81)">
                <path d="M37.22,4.337C37.773,4.118 38.368,4 39,4C41.761,4 44,6.239 44,9L44,37" style="fill:none;fill-rule:nonzero;stroke:rgb(62,182,253);stroke-width:2.2px;stroke-miterlimit:10;"></path>
            </g>
            <g transform="matrix(-1,1.22465e-16,-1.22465e-16,-1,81,81)">
                <path d="M25,37L25,9C25,5.134 28.134,2 32,2L32,2C35.866,2 39,5.134 39,9L39,37" style="fill:none;fill-rule:nonzero;stroke:rgb(62,182,253);stroke-width:2.2px;stroke-miterlimit:10;"></path>
            </g>
            <g transform="matrix(-1,1.22465e-16,-1.22465e-16,-1,81,81)">
                <path d="M40,52L40,54C40,58.418 36.418,62 32,62L32,62C27.582,62 24,58.418 24,54L24,52" style="fill:none;fill-rule:nonzero;stroke:rgb(0,200,0);stroke-width:2.2px;stroke-miterlimit:10;"></path>
            </g>
            <g transform="matrix(-1,1.22465e-16,-1.22465e-16,-1,81,81)">
                <path d="M32,37L32,10" style="fill:none;fill-rule:nonzero;stroke:rgb(62,182,253);stroke-width:2.2px;stroke-miterlimit:10;"></path>
            </g>
            <g transform="matrix(-1,1.22465e-16,-1.22465e-16,-1,81,81)">
                <path d="M16,37C16,39.488 17.282,41.801 19.392,43.12L24,46L24,52L40,52L40,46L44.608,43.12C46.718,41.801 48,39.488 48,37L16,37Z" style="fill:none;fill-rule:nonzero;stroke:rgb(0,200,0);stroke-width:2.2px;stroke-linecap:square;stroke-miterlimit:10;"></path>
            </g>
        </g>
    </g>
</svg>
